<?xml version="1.0" encoding="UTF-8"?>
<svg id="Layer_1" xmlns="http://www.w3.org/2000/svg" version="1.1" viewBox="0 0 24 24">
  <!-- Generator: Adobe Illustrator 29.4.0, SVG Export Plug-In . SVG Version: 2.1.0 Build 152)  -->
  <defs>
    <style>
      .st0 {
        fill: #00abde;
      }
    </style>
  </defs>
  <path class="st0" d="M3.9,14.5s-.2-.6-.2-2.3c0-1.7,0-5.1,0-5.1,0-.6.2-1.1.3-1.3,0,0,2.2,0,2.2,0,.7,0,1.4-.7,1.4-1.4V1.9c.1-.4.3-1.4,1.2-1.9C5,.7,2.3,4.7,2.1,7.2v4.9c0,.8.6,2,1.8,2.4Z"/>
  <path class="st0" d="M21.9,5.1L17.1.3c-.2-.2-.4-.3-.7-.3h-6.5s-1.3.2-1.4,1.5h7.3v2.5c0,1.3,1,2.3,2.3,2.3h2.6v6.9c0,3.2-2.7,6.7-8.4,9-1.4-.5-4-.8-3.7-5v-.2c0-.8-.6-1.4-1.4-1.4h-2.4c-.7-.2-2.3-.7-2.6-1.9.5,2.7,1.7,7.2,10,10.2,0,0,9.6-3.2,10-10.5v-7.8c0-.2,0-.5-.3-.6ZM18.1,4.8c-.4,0-.8-.4-.8-.8v-1.4c0,0,2.3,2.2,2.3,2.2h-1.5Z"/>
  <polygon class="st0" points="10 5.7 10 9.8 5.9 9.8 5.9 14.1 10 14.1 10 18.2 14.3 18.2 14.3 14.1 18.4 14.1 18.4 9.8 14.3 9.8 14.3 5.7 10 5.7"/>
</svg>