<?xml version="1.0" encoding="UTF-8"?>
<svg id="Layer_1" xmlns="http://www.w3.org/2000/svg" version="1.1" viewBox="0 0 32 32">
  <!-- Generator: Adobe Illustrator 29.4.0, SVG Export Plug-In . SVG Version: 2.1.0 Build 152)  -->
  <defs>
    <style>
      .st0 {
        fill: #00abde;
      }
    </style>
  </defs>
  <path class="st0" d="M5,19.4s-.3-.8-.2-3.1c0-2.3,0-6.8,0-6.8,0-.8.2-1.5.4-1.7,0,0,2.9,0,2.9,0,.9,0,1.8-.9,1.8-1.8v-3.3c.2-.6.3-1.8,1.5-2.6C6.5,1,2.8,6.2,2.6,9.5v6.6c0,1.1.7,2.6,2.4,3.3Z"/>
  <path class="st0" d="M29,6.7L22.6.4c-.2-.2-.5-.4-.9-.4h-8.7s-1.7.3-1.9,2h9.7v3.4c0,1.7,1.4,3,3,3h3.4v9.2c0,4.3-3.6,8.9-11.1,12-1.8-.6-5.3-1.1-4.9-6.6v-.3c0-1.1-.9-1.9-1.9-1.9h-3.2c-.9-.3-3.1-.9-3.4-2.5.7,3.6,2.2,9.6,13.4,13.7,0,0,12.8-4.3,13.3-14V7.6c0-.3-.1-.6-.4-.9ZM23.9,6.4c-.6,0-1.1-.5-1-1.1v-1.9c0,0,3,3,3,3h-2Z"/>
  <polygon class="st0" points="13.2 7.6 13.2 13.1 7.7 13.1 7.7 18.8 13.2 18.8 13.2 24.3 18.9 24.3 18.9 18.8 24.4 18.8 24.4 13.1 18.8 13.1 18.8 7.6 13.2 7.6"/>
</svg>